<svg class="svg-icon" style="width: 1em; height: 1em;vertical-align: middle;fill: currentColor;overflow: hidden;" viewBox="0 0 1024 1024" version="1.1" xmlns="http://www.w3.org/2000/svg"><path d="M512 42.65984q95.66208 0 182.49728 37.1712t149.66784 100.00384 100.00384 149.66784 37.1712 182.49728-37.1712 182.49728-100.00384 149.66784-149.66784 100.00384-182.49728 37.1712-182.49728-37.1712-149.66784-100.00384-100.00384-149.66784-37.1712-182.49728 37.1712-182.49728 100.00384-149.66784 149.66784-100.00384 182.49728-37.1712zM512 128q-78.00832 0-149.17632 30.49472t-122.49088 81.83808-81.83808 122.49088-30.49472 149.17632 30.49472 149.17632 81.83808 122.49088 122.49088 81.83808 149.17632 30.49472 149.17632-30.49472 122.49088-81.83808 81.83808-122.49088 30.49472-149.17632-30.49472-149.17632-81.83808-122.49088-122.49088-81.83808-149.17632-30.49472zM512 298.65984q17.67424 0 30.16704 12.4928t12.4928 30.16704l0 128 128 0q17.67424 0 30.16704 12.4928t12.4928 30.16704-12.4928 30.16704-30.16704 12.4928l-128 0 0 128q0 17.67424-12.4928 30.16704t-30.16704 12.4928-30.16704-12.4928-12.4928-30.16704l0-128-128 0q-17.67424 0-30.16704-12.4928t-12.4928-30.16704 12.4928-30.16704 30.16704-12.4928l128 0 0-128q0-17.67424 12.4928-30.16704t30.16704-12.4928z"  /></svg>