<svg class="svg-icon" style="width: 1em;height: 1em;vertical-align: middle;fill: currentColor;overflow: hidden;" viewBox="0 0 1024 1024" version="1.1" xmlns="http://www.w3.org/2000/svg"><path d="M640 85.333333l200.832 200.832a42.666667 42.666667 0 0 1 12.501333 30.165334V896a42.666667 42.666667 0 0 1-42.666666 42.666667H213.333333a42.666667 42.666667 0 0 1-42.666666-42.666667V128a42.666667 42.666667 0 0 1 42.666666-42.666667h426.666667z m-128 234.666667a128 128 0 0 0-127.786667 120.490667L384 448h85.333333a42.666667 42.666667 0 1 1 74.709334 28.16l-3.498667 3.541333L384 620.672V682.666667h256v-85.333334h-102.613333l60.245333-54.186666-0.256-0.426667 0.341333 0.341333A128 128 0 0 0 512 320z"  /></svg>